<svg preserveAspectRatio="xMidYMid meet" width="148" height="29" overflow="visible" style="display: block;" viewBox="0 0 148 29" fill="none" xmlns="http://www.w3.org/2000/svg">
<g id="freelancer-logo 1">
<g id="Group" opacity="0.8">
<path id="Vector" d="M23.0881 21.9587H21.6081L20.8681 24.7723H22.3481L22.2001 25.3644H20.1281C19.9801 25.3644 19.8321 25.3644 19.8321 25.2163C19.6841 25.0683 19.6841 24.9203 19.6841 24.7723V24.6243L20.2761 22.2559C20.2761 22.1073 20.4241 21.9599 20.5721 21.8113C20.7201 21.6632 20.8681 21.6632 21.1641 21.6632H23.2361L23.0881 21.9593V21.9587ZM27.0841 22.9954V23.1434L26.6401 24.6236C26.6401 24.7717 26.4921 24.9197 26.3441 25.0677C26.1961 25.2157 26.0481 25.2157 25.7521 25.2157H23.5321C23.3841 25.2157 23.2361 25.2157 23.2361 25.0677C23.0881 24.9197 23.0881 24.7717 23.0881 24.6236V24.4756L23.3841 22.9954C23.3841 22.8468 23.5321 22.6994 23.6801 22.5508C23.8281 22.4027 23.9761 22.4027 24.2721 22.4027H26.4921C26.6401 22.4027 26.7881 22.4027 26.7881 22.5508C26.9361 22.6988 27.0841 22.8468 27.0841 22.9954ZM25.7521 22.9954H24.8641L24.4201 24.7717H25.3081L25.7521 22.9954ZM31.2281 22.9954V23.1434L30.6361 25.2157H29.3041L29.8961 22.8474H29.0081L28.4161 25.2157H27.0841L27.8241 22.4027H30.6361C30.7841 22.4027 30.9321 22.4027 30.9321 22.5508C31.2281 22.6988 31.2281 22.8468 31.2281 22.9954ZM35.5201 22.9954V23.1434L34.9281 25.2157H33.5961L34.1881 22.8474H33.4481L32.8561 25.2157H31.5241L32.2641 22.4027H35.0761C35.2241 22.4027 35.3721 22.4027 35.3721 22.5508C35.5201 22.6988 35.5201 22.8468 35.5201 22.9954ZM39.8121 22.9954V23.1434L39.6641 23.7355C39.6641 23.8835 39.5161 24.0316 39.3681 24.1796C39.2201 24.3276 39.0721 24.3276 38.7761 24.3276H37.1481L37.0001 24.9197H38.6281L38.4801 25.3638H36.1121C35.9641 25.3638 35.8161 25.3638 35.8161 25.2157C35.6681 25.0677 35.6681 24.9197 35.6681 24.7717V24.6236L35.9641 23.1434C35.9641 22.9954 36.1121 22.8474 36.2601 22.6988C36.4081 22.5514 36.5561 22.5514 36.7041 22.5514H39.0721C39.2201 22.5514 39.3681 22.5514 39.3681 22.6994C39.6641 22.6994 39.8121 22.8468 39.8121 22.9954ZM38.4801 22.9954H37.5921L37.2961 23.8835H38.1841L38.4801 22.9954ZM43.2161 22.9954H41.7361L41.2921 24.7717H42.7721L42.6241 25.2157H40.5521C40.4041 25.2157 40.2561 25.2157 40.2561 25.0677C39.9601 25.0677 39.9601 24.9197 39.9601 24.7717V24.6236L40.2561 23.1434C40.2561 22.9954 40.4041 22.8474 40.5521 22.6988C40.7001 22.5514 40.8481 22.5514 41.1441 22.5514H43.2161V22.9954ZM46.6201 22.5508L46.4721 22.9954H45.8801L45.2881 25.3638H43.9561L44.5481 22.9954H43.8081L43.9561 22.5508H44.6961L44.9921 21.6626H46.3241L46.0281 22.5508H46.6201ZM47.3601 22.5514H48.8401L48.1001 25.3638H46.7681L47.3601 22.5514ZM48.9881 21.5146L48.8401 22.2553H47.5081L47.6561 21.6632H48.9881V21.5146ZM53.2801 22.9954V23.1434L52.6881 25.2157H51.3561L51.9481 22.8474H51.2081L50.6161 25.2157H49.2841L50.0241 22.4027H52.8361C52.9841 22.4027 53.1321 22.4027 53.1321 22.5508C53.2801 22.6988 53.2801 22.8468 53.2801 22.9954ZM57.4241 22.9954V23.1434L56.8321 25.5118C56.8321 25.6598 56.6841 25.8078 56.5361 25.9558C56.3881 26.1039 56.2401 26.1039 55.9441 26.1039H53.5761L53.7241 25.6598H55.5001L55.6481 25.0677H54.0201C53.8721 25.0677 53.7241 25.0677 53.7241 24.9197C53.5761 24.7717 53.5761 24.6236 53.5761 24.4756V24.3276L53.8721 22.8474C53.8721 22.6994 54.0201 22.5514 54.1681 22.4027C54.3161 22.2547 54.4641 22.2547 54.7601 22.2547H56.9801C57.1281 22.2547 57.2761 22.2547 57.2761 22.4027C57.4241 22.6988 57.5721 22.848 57.4241 22.9954ZM55.6481 24.7717L56.2401 22.9954H55.3521L54.7601 24.7717H55.6481ZM62.1601 21.9587L61.8641 22.8468H63.6401C63.7881 22.8468 63.9361 22.8468 63.9361 22.9954C64.0841 23.1434 64.0841 23.2915 64.0841 23.4395V23.5875L63.7881 24.6236C63.7881 24.7717 63.6401 24.9197 63.4921 25.0677C63.3441 25.2157 63.1961 25.2157 62.9001 25.2157H60.0881L60.2361 24.7717H62.3081L62.6041 23.7355H60.9761C60.8281 23.7355 60.6801 23.7355 60.6801 23.5875C60.5321 23.4395 60.5321 23.2915 60.5321 23.1434V22.9954L60.8281 22.1073C60.8281 21.9593 60.9761 21.8113 61.1241 21.6626C61.2721 21.5146 61.4201 21.5146 61.5681 21.5146H64.3801L64.2321 21.9593H62.1601V21.9587ZM68.8201 22.9954V23.1434L68.2281 25.2157H66.8961L67.4881 22.8474H66.6001L66.0081 25.2157H64.6761L65.7121 21.3672H67.0441L66.7481 22.4033H68.2281C68.3761 22.4033 68.5241 22.4033 68.5241 22.5514C68.6721 22.6994 68.8201 22.8474 68.8201 22.9954ZM69.7081 22.5514H71.0401L70.3001 25.3638H68.9681L69.7081 22.5514ZM71.3361 21.5146L71.1881 22.1067H69.8561L70.0041 21.5146H71.3361ZM75.6281 22.9954V23.1434L75.3321 24.6236C75.3321 24.7717 75.1841 24.9197 75.0361 25.0677C74.8881 25.2157 74.7401 25.2157 74.4441 25.2157H72.8161L72.5201 26.1039H71.1881L71.9281 23.1434C71.9281 22.9954 72.0761 22.8474 72.2241 22.6988C72.3721 22.5514 72.5201 22.5514 72.8161 22.5514H75.0361C75.1841 22.5514 75.3321 22.5514 75.3321 22.6994C75.6281 22.8468 75.6281 22.9954 75.6281 22.9954ZM74.4441 22.9954H73.5561L73.1121 24.7717H74.0001L74.4441 22.9954ZM80.0681 22.9954V23.1434L79.7721 24.6236C79.7721 24.7717 79.6241 24.9197 79.4761 25.0677C79.3281 25.2157 79.1801 25.2157 78.8841 25.2157H77.2561L76.9601 26.1039H75.6281L76.3681 23.1434C76.3681 22.9954 76.5161 22.8474 76.6641 22.6988C76.8121 22.5514 76.9601 22.5514 77.2561 22.5514H79.4761C79.6241 22.5514 79.7721 22.5514 79.7721 22.6994C80.0681 22.8468 80.0681 22.9954 80.0681 22.9954ZM78.7361 22.9954H77.8481L77.4041 24.7717H78.2921L78.7361 22.9954ZM84.3601 22.9954V23.1434L84.2121 23.7355C84.2121 23.8835 84.0641 24.0316 83.9161 24.1796C83.7681 24.3276 83.6201 24.3276 83.3241 24.3276H81.8441L81.6961 24.9197H83.3241L83.1761 25.3638H80.8081C80.6601 25.3638 80.5121 25.3638 80.5121 25.2157C80.3641 25.0677 80.3641 24.9197 80.3641 24.7717V24.6236L80.6601 23.1434C80.8081 22.8474 81.1041 22.5514 81.4001 22.5514H83.7681C83.9161 22.5514 84.0641 22.5514 84.0641 22.6994C84.3601 22.6994 84.3601 22.8468 84.3601 22.9954ZM83.0281 22.9954H82.1401L81.8441 23.8835H82.8801L83.0281 22.9954ZM87.9121 22.5514L87.7641 22.9954H86.5801L85.9881 25.3638H84.6561L85.2481 23.1434C85.2481 22.9954 85.3961 22.8474 85.5441 22.6988C85.6921 22.5514 85.8401 22.5514 86.1361 22.5514H87.9121ZM89.8361 22.9954L89.6881 23.5875H91.3161C91.4641 23.5875 91.6121 23.5875 91.6121 23.7355C91.7601 23.8835 91.7601 24.0316 91.7601 24.1796V24.3276L91.6121 24.6236C91.6121 24.7717 91.4641 24.9197 91.3161 25.0677C91.1681 25.2157 91.0201 25.2157 90.7241 25.2157H88.0601L88.2081 24.7717H90.2801L90.4281 24.1796H88.8001C88.6521 24.1796 88.5041 24.1796 88.5041 24.0316C88.3561 23.8835 88.3561 23.7355 88.3561 23.5875V23.4395L88.5041 22.9954C88.5041 22.8468 88.6521 22.6994 88.8001 22.5508C88.9481 22.4027 89.0961 22.4027 89.2441 22.4027H92.0561L91.9081 22.8468H89.8361V22.9954ZM97.2361 23.8835V24.4756L96.9401 24.6236L97.2361 25.2157H96.3481L96.2001 25.0677C95.9041 25.2157 95.7561 25.3638 95.4601 25.3638C95.1641 25.3638 95.0161 25.2157 94.8681 25.0677C94.8681 24.9197 94.7201 24.6236 94.7201 24.4756C94.7201 24.3276 94.7201 24.1796 94.8681 24.0316C95.0161 23.8835 95.0161 23.7355 95.1641 23.7355C94.8681 23.5875 94.8681 23.2915 94.8681 22.9954C94.8681 22.6994 95.0161 22.5514 95.1641 22.4033C95.3121 22.2547 95.6081 22.1073 95.9041 22.1073C96.2001 22.1073 96.3481 22.1073 96.4961 22.2547C96.6441 22.4027 96.7921 22.6994 96.7921 22.8468C96.7921 23.1428 96.6441 23.2915 96.4961 23.5875L96.7921 24.1796L97.2361 23.8835ZM96.0521 24.6236L95.7561 24.1796C95.6081 24.3276 95.6081 24.3276 95.6081 24.4756V24.6236H95.7561C95.9041 24.7717 95.9041 24.6236 96.0521 24.6236ZM95.9041 23.1434C96.0521 22.9954 96.0521 22.8474 96.0521 22.6988V22.5514H95.7561V22.6994C95.7561 22.9954 95.7561 22.9954 95.9041 23.1434ZM103.304 21.9587H101.824L101.084 24.7723H102.416L102.268 25.2163H100.196C100.048 25.2163 99.9001 25.2163 99.9001 25.0683C99.7521 24.9203 99.7521 24.7723 99.7521 24.6243V24.4762L100.344 22.1079C100.344 21.9599 100.492 21.8119 100.64 21.6632C100.788 21.5152 100.936 21.5152 101.232 21.5152H103.304V21.9599V21.9587ZM107.152 22.9954C107.3 23.1434 107.3 23.1434 107.152 22.9954L106.56 25.2157H103.6C103.452 25.2157 103.304 25.2157 103.304 25.0677C103.156 24.9197 103.156 24.7717 103.156 24.6236L103.304 23.8835C103.452 23.4395 103.748 23.2915 104.192 23.2915H105.672L105.82 22.9954H104.192L104.34 22.5514H106.708C106.856 22.5514 107.004 22.5514 107.004 22.6994C107.152 22.6994 107.3 22.8468 107.152 22.9954ZM105.672 23.7355H104.784L104.488 24.7717H105.376L105.672 23.7355ZM110.704 22.5514L110.556 22.9954H109.52L108.928 25.3638H107.596L108.04 23.1434C108.04 22.9954 108.188 22.8474 108.336 22.6988C108.484 22.5514 108.632 22.5514 108.928 22.5514H110.704ZM114.108 22.5508L113.96 22.8468H112.776L112.184 25.2151H110.852L111.444 22.9954C111.444 22.8468 111.592 22.6994 111.74 22.5508C111.888 22.4027 112.036 22.4027 112.332 22.4027L114.108 22.5508ZM114.996 22.5514H116.328L115.588 25.3638H114.256L114.996 22.5514ZM116.624 21.5146L116.476 22.1067H115.144L115.292 21.5146H116.624ZM120.768 22.9954V23.1434L120.62 23.7355C120.62 23.8835 120.472 24.0316 120.324 24.1796C120.176 24.3276 120.028 24.3276 119.732 24.3276H118.252L118.104 24.9197H119.732L119.584 25.3638H117.068C116.92 25.3638 116.772 25.3638 116.772 25.2157C116.624 25.0677 116.624 24.9197 116.624 24.7717V24.6236L116.92 23.1434C116.92 22.9954 117.068 22.8474 117.216 22.6988C117.364 22.5514 117.512 22.5514 117.66 22.5514H120.028C120.176 22.5514 120.324 22.5514 120.324 22.6994C120.768 22.6994 120.768 22.8468 120.768 22.9954ZM119.436 22.9954H118.548L118.252 23.8835H119.14L119.436 22.9954ZM124.172 22.5514L124.024 22.9954H122.84L122.248 25.3638H120.916L121.508 23.1434C121.508 22.9954 121.656 22.8474 121.804 22.6988C121.952 22.5514 122.1 22.5514 122.396 22.5514H124.172ZM126.096 22.9954L125.948 23.5875H127.576C127.724 23.5875 127.872 23.5875 127.872 23.7355C128.02 23.8835 128.02 24.0316 128.02 24.1796V24.6236C128.02 24.7717 127.872 24.9197 127.724 25.0677C127.576 25.2157 127.428 25.2157 127.132 25.2157H124.32L124.468 24.7717H126.54L126.688 24.1796H125.208C125.06 24.1796 124.912 24.1796 124.912 24.0316C124.764 23.8835 124.764 23.7355 124.764 23.5875V23.4395L124.912 22.9954C124.912 22.8468 125.06 22.6994 125.208 22.5508C125.356 22.4027 125.504 22.4027 125.652 22.4027H128.464L128.316 22.8468H126.096V22.9954Z" fill="#ffffff"/>
</g>
<path id="Vector_2" d="M20.276 2.41797L18.5 3.60214L15.096 15.297H16.28L19.388 4.19422L19.832 3.89818L20.276 2.41797ZM6.956 10.8564L4.736 18.7021H1.48L0 18.258L1.628 12.3366L6.956 10.8564ZM146.668 4.49026L146.52 4.63828H23.384L18.204 15.297H18.056L21.608 2.41797L146.668 4.49026ZM96.348 12.0405L102.564 10.8564L100.344 18.7021H94.424L96.348 12.0405Z" fill="#ffffff"/>
<path id="Vector_3" d="M121.064 7.74615H115.144L115.736 5.52644H121.656L121.064 7.74675V7.74615ZM131.424 6.85802H136.604L137.048 5.37781H129.204C128.316 5.37781 127.428 5.67385 126.836 6.11852C126.244 6.56258 125.652 7.15467 125.504 7.89477L125.208 8.93092H122.544L122.1 10.4111H124.764L122.248 18.7015H128.168L130.536 10.2631H134.236L134.68 8.7829H130.98L131.424 6.85802ZM148 8.93092H145.336L146.224 5.52644H140.452L139.564 8.93092H136.16L135.716 10.2631H139.12L136.752 18.7015H142.524L144.892 10.2631H147.556L148 8.93092ZM117.956 18.7015H112.036L114.848 8.93092H120.768L117.956 18.7015ZM111.888 10.7072C111.888 10.1151 111.592 9.67102 111.148 9.37498C110.704 9.07894 110.26 8.93092 109.668 8.7829H103.008L104.044 5.37781H98.1239L97.2359 8.7829H82.5839C81.8439 8.7829 81.1039 9.07894 80.3639 9.523C79.7719 9.96706 79.1799 10.5591 79.0319 11.2992L78.4399 12.7795C78.4399 12.9281 78.2919 13.0755 78.2919 13.2241C78.2919 13.8162 78.5879 14.2603 79.0319 14.5563C79.4759 14.8524 79.9199 15.0004 80.5119 15.1484H87.4679L87.0239 16.9246H65.4159L67.1919 10.4117H71.0399L69.2639 16.6286L75.4799 15.5925L78.4399 5.52583H72.5199L71.6319 8.93092H65.1199C64.2319 8.93092 63.3439 9.22696 62.7519 9.67102C62.1599 10.1151 61.5679 10.7072 61.4199 11.4473L59.9399 16.4806C59.9399 16.6286 59.7919 16.7766 59.7919 17.0727C59.7919 17.6647 60.0879 18.1094 60.5319 18.4055C60.9759 18.7015 61.4199 18.8495 62.0119 18.9975H89.5399C90.4279 18.9975 91.3159 18.7015 91.9079 18.2574C92.4999 17.8134 93.0919 17.2213 93.2399 16.6286C93.2399 16.6286 93.6839 14.7043 93.6839 14.5563C93.6839 13.9642 93.3879 13.5202 92.9439 13.2241C92.4999 12.9281 92.0559 12.7801 91.4639 12.632H84.5079L84.9519 10.8558H106.116L103.896 18.7015H109.816L111.888 11.2992V10.7072ZM13.7639 16.3326L17.3159 3.60156H16.2799C14.7999 3.60156 10.2119 4.04563 9.17592 7.30269L8.87992 8.33823H13.7639L12.2839 9.22635L8.28792 10.4105L5.91992 18.7015H20.8679L22.4959 16.3332H13.7639V16.3326ZM41.2919 10.7072C41.2919 10.1151 40.9959 9.67102 40.5519 9.37498C40.1079 9.07894 39.6639 8.93092 39.0719 8.7829H29.1559C28.2679 8.7829 27.3799 9.07894 26.7879 9.523C26.1959 9.96706 25.6039 10.5591 25.4559 11.2992L24.1239 16.3326C24.1239 16.4806 23.9759 16.6286 23.9759 16.9246C23.9759 17.5167 24.2719 17.9614 24.7159 18.2574C25.1599 18.5535 25.6039 18.7015 26.1959 18.8495H35.9639C36.8519 18.8495 37.7399 18.5535 38.3319 18.1094C38.9239 17.6654 39.5159 17.0733 39.6639 16.4812L41.1439 11.4479C41.1439 11.1518 41.2919 11.0038 41.2919 10.7072ZM33.7439 16.9259H29.5999L31.3759 10.4117H35.5199L33.7439 16.9259ZM58.3119 9.37498C57.8679 9.07894 57.4239 8.93092 56.8319 8.7829H46.4719L46.0279 10.2631H53.4279L53.1319 11.4473H46.3239C45.4359 11.4473 44.5479 11.7433 43.9559 12.188C43.3639 12.484 42.9199 13.0761 42.6239 13.8162L41.8839 16.3326C41.8839 16.4806 41.7359 16.6286 41.7359 16.9246C41.7359 17.5167 42.0319 17.9614 42.4759 18.2574C42.9199 18.5535 43.3639 18.7015 43.9559 18.8495H56.9799L59.0519 11.4479C59.0519 11.2999 59.1999 11.1518 59.1999 11.0038C59.0519 10.2631 58.7559 9.67102 58.3119 9.37498ZM51.3559 17.0733H47.3599L48.3959 13.2241H52.3919L51.3559 17.0733Z" fill="#ffffff"/>
<path id="Vector_4" opacity="0.7" d="M17.76 25.2138L1.47998 24.7697L17.76 23.4375V25.2138ZM130.24 23.4375L146.52 24.7697L130.24 25.2138V23.4375Z" fill="#ffffff"/>
</g>
</svg>