<svg width="245" height="48" viewBox="0 0 245 48" fill="none" xmlns="http://www.w3.org/2000/svg"><g opacity=".8" fill="#1F376B"><path d="M38.22 36.343h-2.45L34.545 41h2.45l-.245.98h-3.43c-.245 0-.49 0-.49-.245-.245-.245-.245-.49-.245-.735v-.245l.98-3.92c0-.246.245-.49.49-.736.245-.245.49-.245.98-.245h3.43l-.245.49ZM44.835 38.059v.245l-.735 2.45c0 .245-.245.49-.49.735s-.49.245-.98.245h-3.675c-.245 0-.49 0-.49-.245-.245-.245-.245-.49-.245-.735v-.245l.49-2.45c0-.246.245-.49.49-.736.245-.245.49-.245.98-.245h3.675c.245 0 .49 0 .49.245.245.245.49.49.49.736Zm-2.205 0h-1.47l-.735 2.94h1.47l.735-2.94ZM51.695 38.059v.245l-.98 3.43H48.51l.98-3.92h-1.47l-.98 3.92h-2.205l1.225-4.656h4.655c.245 0 .49 0 .49.245.49.245.49.49.49.736ZM58.8 38.059v.245l-.98 3.43h-2.205l.98-3.92H55.37l-.98 3.92h-2.205l1.225-4.656h4.655c.245 0 .49 0 .49.245.245.245.245.49.245.736ZM65.905 38.059v.245l-.245.98c0 .245-.245.49-.49.735s-.49.245-.98.245h-2.695l-.245.98h2.695l-.245.735h-3.92c-.245 0-.49 0-.49-.245-.245-.245-.245-.49-.245-.735v-.245l.49-2.45c0-.245.245-.49.49-.736.245-.244.49-.244.735-.244h3.92c.245 0 .49 0 .49.245.49 0 .735.244.735.49Zm-2.205 0h-1.47l-.49 1.47h1.47l.49-1.47ZM71.54 38.059h-2.45l-.735 2.94h2.45l-.245.735h-3.43c-.245 0-.49 0-.49-.245-.49 0-.49-.245-.49-.49v-.245l.49-2.45c0-.245.245-.49.49-.736.245-.244.49-.244.98-.244h3.43v.735ZM77.175 37.323l-.245.736h-.98l-.98 3.92h-2.205l.98-3.92H72.52l.245-.736h1.225l.49-1.47h2.205l-.49 1.47h.98ZM78.4 37.324h2.45l-1.225 4.655H77.42l.98-4.655Zm2.695-1.716-.245 1.226h-2.205l.245-.98h2.205v-.246ZM88.2 38.059v.245l-.98 3.43h-2.205l.98-3.92H84.77l-.98 3.92h-2.205l1.225-4.656h4.655c.245 0 .49 0 .49.245.245.245.245.49.245.736ZM95.06 38.059v.245l-.98 3.92c0 .245-.245.49-.49.735s-.49.245-.98.245h-3.92l.245-.735h2.94l.245-.98h-2.695c-.245 0-.49 0-.49-.245-.245-.245-.245-.49-.245-.735v-.245l.49-2.45c0-.245.245-.49.49-.736.245-.245.49-.245.98-.245h3.675c.245 0 .49 0 .49.245.245.49.49.736.245.98Zm-2.94 2.94.98-2.94h-1.47l-.98 2.94h1.47ZM102.9 36.343l-.49 1.47h2.94c.245 0 .49 0 .49.246.245.245.245.49.245.735v.245l-.49 1.715c0 .245-.245.49-.49.735s-.49.245-.98.245H99.47l.245-.735h3.43l.49-1.715h-2.695c-.245 0-.49 0-.49-.245-.245-.245-.245-.49-.245-.735v-.245l.49-1.47c0-.245.245-.49.49-.736.245-.245.49-.245.735-.245h4.655l-.245.736h-3.43ZM113.925 38.059v.245l-.98 3.43h-2.205l.98-3.92h-1.47l-.98 3.92h-2.205l1.715-6.37h2.205l-.49 1.715h2.45c.245 0 .49 0 .49.245.245.245.49.49.49.735ZM115.395 37.324h2.205l-1.225 4.655h-2.205l1.225-4.655Zm2.695-1.716-.245.98h-2.205l.245-.98h2.205ZM125.195 38.059v.245l-.49 2.45c0 .245-.245.49-.49.735s-.49.245-.98.245h-2.695l-.49 1.47h-2.205l1.225-4.9c0-.245.245-.49.49-.736.245-.244.49-.244.98-.244h3.675c.245 0 .49 0 .49.245.49.244.49.49.49.49Zm-1.96 0h-1.47l-.735 2.94h1.47l.735-2.94ZM132.545 38.059v.245l-.49 2.45c0 .245-.245.49-.49.735s-.49.245-.98.245h-2.695l-.49 1.47h-2.205l1.225-4.9c0-.245.245-.49.49-.736.245-.244.49-.244.98-.244h3.675c.245 0 .49 0 .49.245.49.244.49.49.49.49Zm-2.205 0h-1.47l-.735 2.94h1.47l.735-2.94ZM139.65 38.059v.245l-.245.98c0 .245-.245.49-.49.735s-.49.245-.98.245h-2.45l-.245.98h2.695l-.245.735h-3.92c-.245 0-.49 0-.49-.245-.245-.245-.245-.49-.245-.735v-.245l.49-2.45c.245-.49.735-.98 1.225-.98h3.92c.245 0 .49 0 .49.245.49 0 .49.244.49.49Zm-2.205 0h-1.47l-.49 1.47h1.715l.245-1.47ZM145.53 37.324l-.245.735h-1.96l-.98 3.92h-2.205l.98-3.675c0-.245.245-.49.49-.736.245-.244.49-.244.98-.244h2.94ZM148.715 38.059l-.245.98h2.695c.245 0 .49 0 .49.245.245.245.245.49.245.735v.245l-.245.49c0 .245-.245.49-.49.735s-.49.245-.98.245h-4.41l.245-.735h3.43l.245-.98H147c-.245 0-.49 0-.49-.245-.245-.245-.245-.49-.245-.735v-.245l.245-.735c0-.246.245-.49.49-.736.245-.245.49-.245.735-.245h4.655l-.245.735h-3.43v.245ZM160.965 39.529v.98l-.49.245.49.98h-1.47l-.245-.245c-.49.245-.735.49-1.225.49-.49 0-.735-.245-.98-.49 0-.245-.245-.735-.245-.98s0-.49.245-.735.245-.49.49-.49c-.49-.245-.49-.735-.49-1.225 0-.49.245-.735.49-.98.245-.246.735-.49 1.225-.49.49 0 .735 0 .98.244.245.245.49.736.49.98 0 .49-.245.736-.49 1.226l.49.98.735-.49Zm-1.96 1.225-.49-.735c-.245.245-.245.245-.245.49v.245h.245c.245.245.245 0 .49 0Zm-.245-2.45c.245-.245.245-.49.245-.736v-.244h-.49v.245c0 .49 0 .49.245.735ZM171.01 36.343h-2.45L167.335 41h2.205l-.245.735h-3.43c-.245 0-.49 0-.49-.245-.245-.245-.245-.49-.245-.735v-.245l.98-3.92c0-.245.245-.49.49-.736.245-.245.49-.245.98-.245h3.43v.736ZM177.38 38.059c.245.245.245.245 0 0l-.98 3.675h-4.9c-.245 0-.49 0-.49-.245-.245-.245-.245-.49-.245-.735l.245-1.225c.245-.735.735-.98 1.47-.98h2.45l.245-.49h-2.695l.245-.735h3.92c.245 0 .49 0 .49.245.245 0 .49.244.245.49Zm-2.45 1.225h-1.47l-.49 1.715h1.47l.49-1.715ZM183.26 37.324l-.245.735H181.3l-.98 3.92h-2.205l.735-3.675c0-.245.245-.49.49-.736.245-.244.49-.244.98-.244h2.94ZM188.895 37.323l-.245.49h-1.96l-.98 3.92h-2.205l.98-3.674c0-.246.245-.49.49-.736.245-.245.49-.245.98-.245l2.94.245ZM190.365 37.324h2.205l-1.225 4.655h-2.205l1.225-4.655Zm2.695-1.716-.245.98h-2.205l.245-.98h2.205ZM199.92 38.059v.245l-.245.98c0 .245-.245.49-.49.735s-.49.245-.98.245h-2.45l-.245.98h2.695l-.245.735h-4.165c-.245 0-.49 0-.49-.245-.245-.245-.245-.49-.245-.735v-.245l.49-2.45c0-.245.245-.49.49-.736.245-.244.49-.244.735-.244h3.92c.245 0 .49 0 .49.245.735 0 .735.244.735.49Zm-2.205 0h-1.47l-.49 1.47h1.47l.49-1.47ZM205.555 37.324l-.245.735h-1.96l-.98 3.92h-2.205l.98-3.675c0-.245.245-.49.49-.736.245-.244.49-.244.98-.244h2.94ZM208.74 38.059l-.245.98h2.695c.245 0 .49 0 .49.245.245.245.245.49.245.735v.735c0 .245-.245.49-.49.735s-.49.245-.98.245H205.8l.245-.735h3.43l.245-.98h-2.45c-.245 0-.49 0-.49-.245-.245-.245-.245-.49-.245-.735v-.245l.245-.735c0-.246.245-.49.49-.736.245-.245.49-.245.735-.245h4.655l-.245.735h-3.675v.245Z"/></g><path d="m33.565 4-2.94 1.96-5.635 19.357h1.96L32.095 6.94l.735-.49.735-2.45ZM11.515 17.967 7.84 30.953H2.45L0 30.218l2.695-9.801 8.82-2.45ZM242.795 7.43l-.245.245H38.71l-8.575 17.642h-.245L35.77 4l207.025 3.43ZM159.495 19.927l10.29-1.96-3.675 12.986h-9.8l3.185-11.026Z" fill="#1F376B"/><path d="M200.41 12.82h-9.8l.98-3.674h9.8l-.98 3.675ZM217.56 11.35h8.575l.735-2.45h-12.985c-1.47 0-2.94.49-3.92 1.226-.98.735-1.96 1.715-2.205 2.94l-.49 1.715h-4.41l-.735 2.45h4.41l-4.165 13.722h9.8l3.92-13.967h6.125l.735-2.45h-6.125l.735-3.185ZM245 14.781h-4.41l1.47-5.635h-9.555l-1.47 5.635H225.4l-.735 2.205h5.635l-3.92 13.967h9.555l3.92-13.967h4.41l.735-2.205ZM195.265 30.953h-9.8l4.655-16.172h9.8l-4.655 16.172ZM185.22 17.721c0-.98-.49-1.715-1.225-2.205-.735-.49-1.47-.735-2.45-.98H170.52l1.715-5.636h-9.8l-1.47 5.636H136.71c-1.225 0-2.45.49-3.675 1.225-.98.735-1.96 1.715-2.205 2.94l-.98 2.45c0 .246-.245.49-.245.736 0 .98.49 1.715 1.225 2.205.735.49 1.47.735 2.45.98h11.515l-.735 2.94h-35.77l2.94-10.78h6.37l-2.94 10.29 10.29-1.715 4.9-16.662h-9.8l-1.47 5.636H107.8c-1.47 0-2.94.49-3.92 1.225-.98.735-1.96 1.715-2.205 2.94l-2.45 8.331c0 .245-.245.49-.245.98 0 .98.49 1.716 1.225 2.206.735.49 1.47.735 2.45.98h45.57c1.47 0 2.94-.49 3.92-1.225.98-.735 1.96-1.715 2.205-2.696 0 0 .735-3.185.735-3.43 0-.98-.49-1.715-1.225-2.205-.735-.49-1.47-.735-2.45-.98h-11.515l.735-2.94h35.035l-3.675 12.986h9.8l3.43-12.252v-.98ZM22.785 27.032l5.88-21.072H26.95c-2.45 0-10.045.735-11.76 6.126L14.7 13.8h8.085l-2.45 1.47-6.615 1.96L9.8 30.953h24.745l2.695-3.92H22.785ZM68.355 17.721c0-.98-.49-1.715-1.225-2.205-.735-.49-1.47-.735-2.45-.98H48.265c-1.47 0-2.94.49-3.92 1.225-.98.735-1.96 1.715-2.205 2.94l-2.205 8.331c0 .245-.245.49-.245.98 0 .98.49 1.716 1.225 2.206.735.49 1.47.735 2.45.98h16.17c1.47 0 2.94-.49 3.92-1.225.98-.735 1.96-1.715 2.205-2.695l2.45-8.331c0-.49.245-.735.245-1.226ZM55.86 28.014H49l2.94-10.782h6.86l-2.94 10.782ZM96.53 15.516c-.735-.49-1.47-.735-2.45-.98H76.93l-.735 2.45h12.25l-.49 1.96h-11.27c-1.47 0-2.94.49-3.92 1.226-.98.49-1.715 1.47-2.205 2.695l-1.225 4.165c0 .245-.245.49-.245.98 0 .98.49 1.716 1.225 2.206.735.49 1.47.735 2.45.98h21.56l3.43-12.251c0-.245.245-.49.245-.735-.245-1.226-.735-2.206-1.47-2.696ZM85.015 28.258H78.4l1.715-6.371h6.615l-1.715 6.37Z" fill="#1F376B"/><path d="m29.4 41.734-26.95-.735 7.84-.245-7.84.245 26.95-2.205v2.94ZM215.6 38.794l26.95 2.205-7.84-.245 7.84.245-26.95.735v-2.94Z" fill="#1F376B" opacity=".7"/></svg>
